<svg width="600" height="238" viewBox="0 0 600 238" fill="none" xmlns="http://www.w3.org/2000/svg">
<path d="M50 45C104.78 45 159.56 45 216 45C212.573 71.2738 212.573 71.2738 210.875 80.375C210.536 82.2156 210.2 84.0568 209.867 85.8984C209.724 86.6685 209.581 87.4385 209.433 88.2319C208.822 92.1361 208.436 96.0725 208 100C153.22 100 98.44 100 42 100C42.631 91.1653 43.3369 82.8775 44.9375 74.25C45.107 73.3 45.2765 72.3499 45.4512 71.3711C46.4016 66.0878 47.4251 60.8248 48.5374 55.5732C49.167 52.0714 49.5587 48.5305 50 45Z" fill="#F4F4F4"/>
<path d="M30 169C101.94 169 173.88 169 248 169C247 175 247 175 244 184C173.05 184 102.1 184 29 184C29 174 29 174 30 169Z" fill="#F6F6F6"/>
<path d="M438.969 110.567C440.106 110.559 440.106 110.559 441.266 110.551C442.862 110.544 444.459 110.546 446.056 110.554C448.493 110.563 450.927 110.534 453.363 110.502C454.919 110.5 456.475 110.501 458.031 110.504C458.755 110.493 459.479 110.482 460.225 110.47C465.094 110.537 467.585 111.537 471 115C474.709 122.419 471.464 134.232 470 142C469.856 142.799 469.711 143.599 469.563 144.422C468.498 149.477 466.71 153.167 462.359 156.11C458.988 157.382 455.686 157.345 452.129 157.371C451.37 157.38 450.61 157.389 449.828 157.399C448.225 157.413 446.622 157.422 445.019 157.426C442.574 157.438 440.131 157.487 437.686 157.537C436.125 157.547 434.564 157.554 433.004 157.559C432.277 157.578 431.549 157.598 430.8 157.618C426.827 157.583 425.175 157.143 422.062 154.59C418.767 150.452 418.955 147.837 419.313 142.75C419.362 142.039 419.411 141.329 419.462 140.596C421.049 119.234 421.049 119.234 426 114C430.183 110.837 433.887 110.546 438.969 110.567Z" fill="#8B8B8B"/>
<path d="M101.617 110.664C102.719 110.654 102.719 110.654 103.844 110.644C105.395 110.634 106.947 110.629 108.499 110.629C110.86 110.625 113.22 110.589 115.582 110.551C117.094 110.545 118.605 110.541 120.117 110.539C120.817 110.525 121.518 110.51 122.239 110.496C127.271 110.542 130.127 111.841 134 115C137.184 121.369 134.688 131.436 133.813 138.25C133.711 139.204 133.61 140.158 133.506 141.141C132.714 147.306 131.593 150.727 127 155C123.307 157.495 119.436 157.34 115.129 157.371C114.37 157.38 113.61 157.389 112.828 157.399C111.225 157.413 109.622 157.422 108.019 157.426C105.574 157.438 103.131 157.487 100.686 157.537C99.125 157.547 97.5645 157.554 96.0039 157.559C95.2767 157.578 94.5495 157.598 93.8002 157.618C89.8274 157.583 88.1746 157.143 85.0623 154.59C81.7036 150.372 81.6803 147.245 82 142C82.5013 137.874 83.1752 133.785 83.875 129.688C84.136 128.062 84.136 128.062 84.4024 126.404C84.5764 125.367 84.7504 124.33 84.9297 123.262C85.0868 122.323 85.2439 121.384 85.4058 120.417C86 118 86 118 88 115C88.66 115 89.32 115 90 115C90 114.34 90 113.68 90 113C93.7031 110.621 97.3569 110.678 101.617 110.664Z" fill="#8C8C8C"/>
<path d="M140 111C144.62 111 149.24 111 154 111C160.293 129.513 160.293 129.513 162.457 138.129C162.836 139.997 162.836 139.997 164 141C164.327 140.447 164.654 139.893 164.99 139.323C167.605 134.904 170.242 130.501 172.914 126.117C174.655 123.261 176.345 120.408 177.898 117.445C179.434 114.757 180.535 112.878 183 111C187.456 110.212 191.53 110.395 196 111C195.925 111.541 195.85 112.082 195.772 112.639C193.724 127.411 191.821 142.198 190 157C185.71 157 181.42 157 177 157C177.33 151.72 177.66 146.44 178 141C177.429 142.155 176.858 143.31 176.27 144.5C171.39 153.667 171.39 153.667 168 157C163.032 158.483 160.231 157.89 155 157C152.525 149.08 152.525 149.08 150 141C149.67 141 149.34 141 149 141C148.34 146.28 147.68 151.56 147 157C142.71 157 138.42 157 134 157C135.497 141.59 137.454 126.274 140 111Z" fill="#8C8C8C"/>
<path d="M453.916 168.88C455.437 168.878 455.437 168.878 456.989 168.875C458.1 168.879 459.211 168.883 460.356 168.886C462.113 168.886 462.113 168.886 463.904 168.886C467.115 168.887 470.325 168.892 473.536 168.899C476.891 168.905 480.246 168.905 483.601 168.907C489.955 168.91 496.308 168.918 502.662 168.928C509.895 168.939 517.129 168.945 524.362 168.95C539.241 168.96 554.121 168.978 569 169C568.692 171.126 568.378 173.25 568.062 175.375C567.888 176.558 567.714 177.742 567.535 178.961C567 182 567 182 566 184C525.08 184 484.16 184 442 184C442.851 178.044 443.377 175.045 446 170C448.95 169.017 450.843 168.876 453.916 168.88Z" fill="#F6F6F6"/>
<path d="M547.609 110.65C549.363 110.633 551.116 110.606 552.87 110.568C555.398 110.513 557.924 110.491 560.453 110.477C561.234 110.454 562.014 110.431 562.818 110.408C566.908 110.424 568.757 110.807 572.001 113.381C574.152 116.2 574.596 117.28 574.375 120.75C574.341 121.529 574.308 122.307 574.273 123.109C574 125 574 125 573 126C571.147 126.072 569.292 126.084 567.438 126.063C566.426 126.054 565.414 126.045 564.371 126.035C563.589 126.024 562.806 126.012 562 126C562 125.01 562 124.02 562 123C553.75 123 545.5 123 537 123C537 124.65 537 126.3 537 128C537.817 127.979 538.634 127.958 539.475 127.937C543.192 127.853 546.908 127.801 550.625 127.75C552.553 127.7 552.553 127.7 554.52 127.649C565.195 127.538 565.195 127.538 568.863 129.625C572.345 133.496 571.638 136.757 571.387 141.731C570.725 147.329 569.913 151.404 565.387 155.18C561.454 157.293 558.29 157.597 553.934 157.566C552.799 157.576 552.799 157.576 551.641 157.585C550.05 157.592 548.459 157.589 546.868 157.576C544.44 157.563 542.016 157.597 539.588 157.635C538.036 157.636 536.485 157.634 534.934 157.629C534.213 157.642 533.492 157.656 532.749 157.669C528.815 157.597 527.138 157.112 524.037 154.612C521.841 151.796 521.402 150.743 521.625 147.25C521.659 146.471 521.692 145.693 521.727 144.891C522 143 522 143 523 142C524.686 141.928 526.375 141.916 528.063 141.938C528.982 141.947 529.901 141.956 530.848 141.965C531.558 141.977 532.268 141.988 533 142C533.33 142.99 533.66 143.98 534 145C542.25 145 550.5 145 559 145C559 143.35 559 141.7 559 140C557.676 140.039 557.676 140.039 556.325 140.079C553.036 140.165 549.748 140.227 546.457 140.275C545.036 140.3 543.615 140.334 542.195 140.377C540.146 140.438 538.1 140.466 536.051 140.488C534.205 140.528 534.205 140.528 532.322 140.568C528.088 139.844 526.644 138.307 524 135C522.641 129.172 524.026 122.545 526 117C528.563 114.063 528.563 114.063 531 112C533.803 109.197 543.646 110.677 547.609 110.65Z" fill="#8B8B8B"/>
<path d="M199 111C204.178 110.926 209.355 110.871 214.533 110.835C216.294 110.82 218.054 110.8 219.815 110.774C222.349 110.737 224.883 110.72 227.418 110.707C228.201 110.692 228.985 110.676 229.792 110.66C234.38 110.659 237.368 111.12 241 114C244.119 120.239 241.69 130.528 240 137C238.585 140.152 237.359 141.732 234.586 143.801C229.267 145.58 224.19 145.315 218.625 145.188C216.949 145.167 216.949 145.167 215.238 145.147C212.492 145.111 209.746 145.058 207 145C206.67 148.96 206.34 152.92 206 157C201.71 157 197.42 157 193 157C193.763 147.203 195.144 137.531 196.562 127.813C196.799 126.177 197.035 124.54 197.271 122.904C197.845 118.936 198.421 114.968 199 111Z" fill="#8C8C8C"/>
<path d="M477 111C482.28 111 487.56 111 493 111C497.29 119.25 501.58 127.5 506 136C507.98 123.625 507.98 123.625 510 111C514.29 111 518.58 111 523 111C521.38 126.406 519.622 141.73 517 157C512.05 157 507.1 157 502 157C501.073 155.207 500.146 153.414 499.191 151.566C498.295 149.835 497.398 148.105 496.501 146.374C495.876 145.168 495.253 143.963 494.63 142.757C493.735 141.026 492.838 139.296 491.941 137.566C491.402 136.524 490.863 135.482 490.307 134.408C489.211 132.116 489.211 132.116 488 131C486.314 139.629 485.106 148.281 484 157C479.71 157 475.42 157 471 157C471.946 146.857 473.086 136.839 474.958 126.823C475.935 121.552 476.576 116.342 477 111Z" fill="#8C8C8C"/>
<path d="M103 51.0001C106.96 51.0001 110.92 51.0001 115 51.0001C118.766 60.9661 122.452 70.9539 126 81.0001C127.049 79.2044 128.099 77.4088 129.148 75.6131C130.055 74.0702 130.967 72.5307 131.885 70.9944C134.05 67.3674 136.16 63.7509 138.059 59.9766C139.77 56.6877 141.439 53.7234 144 51.0001C147.885 49.9476 151.09 50.1591 155 51.0001C154.452 65.4281 153.038 79.8631 150 94.0001C146.7 94.0001 143.4 94.0001 140 94.0001C140.33 87.7301 140.66 81.4601 141 75.0001C140.345 76.3716 139.69 77.7432 139.016 79.1563C131.837 93.319 131.837 93.319 126.598 95.2618C123.312 95.1876 123.312 95.1876 118 94.0001C115.525 86.0801 115.525 86.0801 113 78.0001C112.34 78.0001 111.68 78.0001 111 78.0001C110.867 78.9875 110.734 79.9749 110.598 80.9923C110.421 82.2736 110.244 83.5549 110.062 84.8751C109.801 86.7893 109.801 86.7893 109.535 88.7423C109 92.0001 109 92.0001 108 94.0001C104.7 94.0001 101.4 94.0001 98 94.0001C98.7047 84.5343 99.8171 75.1555 101.062 65.7501C101.251 64.3113 101.439 62.8725 101.627 61.4337C102.082 57.9554 102.54 54.4776 103 51.0001Z" fill="#0A0A0A"/>
<path d="M247 111C260.53 111 274.06 111 288 111C287.67 114.63 287.34 118.26 287 122C277.43 122 267.86 122 258 122C258 123.98 258 125.96 258 128C265.59 128 273.18 128 281 128C280.67 131.96 280.34 135.92 280 140C271.75 140 263.5 140 255 140C255 141.98 255 143.96 255 146C264.24 146 273.48 146 283 146C282.67 149.63 282.34 153.26 282 157C268.47 157 254.94 157 241 157C241 152.425 241.034 148.938 241.805 144.594C241.976 143.601 242.148 142.609 242.324 141.586C242.597 140.058 242.597 140.058 242.875 138.5C244.488 129.349 245.77 120.225 247 111Z" fill="#8D8D8D"/>
<path d="M49.7148 110.433C50.8148 110.424 50.8148 110.424 51.9371 110.415C53.4827 110.408 55.0284 110.411 56.5739 110.423C58.9277 110.437 61.2774 110.403 63.6308 110.365C65.138 110.364 66.6451 110.366 68.1523 110.371C69.1979 110.351 69.1979 110.351 70.2646 110.331C75.8823 110.437 78.219 112.131 82 116C82.6211 118.351 82.6211 118.351 82.4375 120.625C82.3949 121.38 82.3524 122.136 82.3086 122.914C82 125 82 125 81 128C77.04 128 73.08 128 69 128C69 126.35 69 124.7 69 123C61.41 123 53.82 123 46 123C46 125.97 46 128.94 46 132C45.4865 136.369 44.7311 140.659 44 145C51.59 145 59.18 145 67 145C67 143.35 67 141.7 67 140C70.96 140 74.92 140 79 140C79.3653 146.09 78.4236 150.071 74.5 154.812C69.75 158.573 61.7503 157.304 55.9492 157.35C54.4031 157.367 52.8572 157.394 51.3115 157.432C49.0744 157.487 46.8392 157.509 44.6015 157.523C43.5716 157.557 43.5716 157.557 42.5209 157.592C38.6529 157.575 37.1085 157.088 34.062 154.622C30.4584 150.039 31.4405 145.583 32 140C34.956 117.114 34.956 117.114 39.0935 112.835C42.6823 110.569 45.598 110.404 49.7148 110.433Z" fill="#8B8B8B"/>
<path d="M182.614 50.3072C185.125 50.3751 187.632 50.3892 190.145 50.3946C191.745 50.4136 193.345 50.4356 194.945 50.461C195.693 50.4675 196.441 50.4739 197.212 50.4806C200.383 50.5818 202.678 50.8225 205.479 52.365C207 54.0001 207 54.0001 207.391 56.6993C207.344 57.6854 207.298 58.6715 207.25 59.6876C207.214 60.6814 207.178 61.6753 207.141 62.6993C207.094 63.4585 207.048 64.2178 207 65.0001C203.7 65.0001 200.4 65.0001 197 65.0001C197 63.3501 197 61.7001 197 60.0001C184.625 60.4951 184.625 60.4951 172 61.0001C170.852 66.7422 169.734 72.3552 168.875 78.1251C168.586 80.0638 168.298 82.0026 168 84.0001C176.58 84.0001 185.16 84.0001 194 84.0001C194 82.3501 194 80.7001 194 79.0001C190.04 79.0001 186.08 79.0001 182 79.0001C182 76.0301 182 73.0601 182 70.0001C189.92 70.0001 197.84 70.0001 206 70.0001C205.753 72.5163 205.505 75.0326 205.25 77.6251C205.182 78.4057 205.114 79.1864 205.044 79.9908C204.493 84.9011 203.246 88.1118 200 92.0001C196.383 94.4898 192.551 94.3392 188.313 94.3712C187.573 94.3802 186.833 94.3892 186.072 94.3985C184.512 94.413 182.952 94.4219 181.392 94.4256C179.007 94.4375 176.626 94.4867 174.242 94.5372C172.724 94.5466 171.206 94.5539 169.688 94.5587C168.977 94.5782 168.266 94.5977 167.534 94.6178C163.864 94.5844 162.287 94.2617 159.54 91.7554C157.947 88.9053 157.529 87.5642 157.68 84.3555C157.717 83.4859 157.754 82.6163 157.792 81.7203C157.861 80.8226 157.929 79.9249 158 79.0001C158.066 78.1217 158.132 77.2434 158.2 76.3384C158.447 73.6524 158.775 70.987 159.125 68.3126C159.218 67.4147 159.311 66.5169 159.406 65.5919C160.067 60.5845 160.985 55.9473 164.596 52.24C170.004 49.4507 176.666 50.1424 182.614 50.3072Z" fill="#090909"/>
<path d="M358 111C373.18 111 388.36 111 404 111C403.67 114.96 403.34 118.92 403 123C397.06 123 391.12 123 385 123C384.876 125.31 384.753 127.62 384.625 130C384.272 135.984 383.737 141.926 383 147.875C382.917 148.558 382.834 149.241 382.749 149.945C382.128 154.744 382.128 154.744 381 157C377.04 157 373.08 157 369 157C368.769 149.212 369.623 142.031 371 134.375C371.286 132.726 371.286 132.726 371.578 131.043C372.045 128.361 372.521 125.68 373 123C367.72 123 362.44 123 357 123C357 116 357 116 358 111Z" fill="#8B8B8B"/>
<path d="M292 111C307.18 111 322.36 111 338 111C338 118 338 118 337 123C331.39 123 325.78 123 320 123C319.732 125.269 319.464 127.538 319.188 129.875C318.081 138.966 316.566 147.979 315 157C311.04 157 307.08 157 303 157C303.499 145.498 305.059 134.339 307 123C301.72 123 296.44 123 291 123C291 116 291 116 292 111Z" fill="#8B8B8B"/>
<path d="M53 51C67.19 51 81.38 51 96 51C96 53.97 96 56.94 96 60C90.39 60 84.78 60 79 60C78.8672 61.5636 78.7345 63.1273 78.5977 64.7383C78.0365 70.9111 77.261 77.0449 76.4375 83.1875C76.2989 84.2349 76.1604 85.2822 76.0176 86.3613C75.6804 88.9078 75.3405 91.4539 75 94C71.37 94 67.74 94 64 94C64.5475 89.6396 65.0989 85.2796 65.6541 80.9202C65.8423 79.4372 66.0295 77.9542 66.2156 76.4709C66.4833 74.3383 66.7549 72.2062 67.0273 70.0742C67.1897 68.7912 67.352 67.5082 67.5193 66.1863C68 63 68 63 69 60C63.72 60 58.44 60 53 60C53 57.03 53 54.06 53 51Z" fill="#050505"/>
<path d="M407 111C411.29 111 415.58 111 420 111C419.486 121.483 418.213 131.535 416.373 141.859C415.496 146.892 414.764 151.949 414 157C410.04 157 406.08 157 402 157C401.703 149.393 402.84 142.078 403.938 134.562C404.302 132.022 404.665 129.482 405.027 126.941C405.197 125.75 405.367 124.56 405.543 123.333C406.106 119.228 406.574 115.121 407 111Z" fill="#8A8A8A"/>
<path d="M100.408 122.886C101.972 122.894 101.972 122.894 103.566 122.902C104.691 122.906 105.816 122.909 106.975 122.912C108.159 122.92 109.343 122.929 110.562 122.938C111.75 122.942 112.938 122.947 114.162 122.951C117.108 122.963 120.054 122.979 123 123C122.518 130.639 121.679 137.444 120 145C111.75 145 103.5 145 95 145C95 132.577 95 132.577 95.9375 128.375C96.1115 127.558 96.2855 126.74 96.4648 125.898C97.2527 123.103 97.4378 123.026 100.408 122.886Z" fill="#020202"/>
<path d="M342 111C345.96 111 349.92 111 354 111C353.403 121.443 352.122 131.565 350.438 141.875C350.201 143.353 349.964 144.831 349.729 146.309C349.159 149.873 348.581 153.437 348 157C344.04 157 340.08 157 336 157C336.659 141.68 338.277 125.892 342 111Z" fill="#8C8C8C"/>
<path d="M435 123C443.25 123 451.5 123 460 123C459.711 126.259 459.423 129.517 459.125 132.875C459.039 133.901 458.953 134.927 458.864 135.984C458.788 136.791 458.711 137.598 458.633 138.43C458.523 139.671 458.523 139.671 458.411 140.937C458 143 458 143 456 145C453.57 145.227 453.57 145.227 450.555 145.195C449.478 145.189 448.402 145.182 447.293 145.176C446.165 145.159 445.037 145.142 443.875 145.125C442.739 145.116 441.604 145.107 440.434 145.098C437.622 145.074 434.811 145.041 432 145C432.115 142.458 432.241 139.917 432.375 137.375C432.406 136.662 432.437 135.949 432.469 135.215C432.507 134.512 432.546 133.81 432.586 133.086C432.617 132.447 432.649 131.808 432.681 131.15C433 129 433 129 435 123Z" fill="#010101"/>
<path d="M411.235 167.886C412.668 167.887 414.102 167.892 415.535 167.902C416.665 167.904 416.665 167.904 417.818 167.907C420.233 167.912 422.648 167.925 425.062 167.938C426.696 167.943 428.329 167.947 429.963 167.951C433.975 167.962 437.988 167.979 442 168C441.57 169.544 441.13 171.085 440.688 172.625C440.444 173.484 440.2 174.342 439.949 175.227C439 178 439 178 436 184C424.78 184 413.56 184 402 184C402.759 180.203 403.566 177.271 405 173.75C405.351 172.879 405.701 172.007 406.062 171.109C407.436 168.02 407.436 168.02 411.235 167.886Z" fill="#EEEEEE"/>
<path d="M352.5 167.886C353.584 167.892 354.668 167.897 355.785 167.902C357.54 167.907 357.54 167.907 359.33 167.912C360.562 167.92 361.793 167.929 363.062 167.938C364.916 167.944 364.916 167.944 366.807 167.951C369.871 167.963 372.936 167.979 376 168C375.57 169.544 375.13 171.085 374.688 172.625C374.444 173.484 374.2 174.342 373.949 175.227C373 178 373 178 370 184C361.42 184 352.84 184 344 184C344.732 179.606 345.227 177.014 347 173.188C347.351 172.418 347.701 171.648 348.062 170.855C349.494 168.023 349.494 168.023 352.5 167.886Z" fill="#EDEDED"/>
<path d="M287 168C295.58 168 304.16 168 313 168C311.394 173.352 309.767 178.699 308 184C299.09 184 290.18 184 281 184C281.757 180.217 282.436 177.699 284 174.312C284.351 173.546 284.701 172.779 285.062 171.988C285.693 170.651 286.339 169.322 287 168Z" fill="#EEEEEE"/>
<path d="M321.408 167.886C322.972 167.894 322.972 167.894 324.566 167.902C325.691 167.906 326.816 167.909 327.975 167.912C329.159 167.92 330.343 167.929 331.562 167.938C332.75 167.942 333.938 167.947 335.162 167.951C338.108 167.963 341.054 167.979 344 168C343.57 169.544 343.13 171.085 342.688 172.625C342.444 173.484 342.2 174.342 341.949 175.227C341 178 341 178 338 184C329.75 184 321.5 184 313 184C313.732 179.606 314.227 177.014 316 173.188C316.351 172.418 316.701 171.648 317.062 170.855C318.493 168.024 318.493 168.024 321.408 167.886Z" fill="#EDEDED"/>
<path d="M265.883 167.473C267.55 167.548 267.55 167.548 269.25 167.625C270.94 167.666 270.94 167.666 272.664 167.707C275.445 167.778 278.221 167.876 281 168C280.543 169.542 280.084 171.084 279.625 172.625C279.242 173.913 279.242 173.913 278.852 175.226C277.949 178.166 276.972 181.083 276 184C267.42 184 258.84 184 250 184C255.017 167.276 255.017 167.276 265.883 167.473Z" fill="#EEEEEE"/>
<path d="M383.949 167.886C384.782 167.892 385.615 167.897 386.473 167.902C387.372 167.906 388.271 167.909 389.197 167.912C390.616 167.925 390.616 167.925 392.062 167.938C393.012 167.942 393.961 167.947 394.939 167.951C397.293 167.963 399.646 167.979 402 168C401.026 173.611 398.989 178.675 397 184C390.07 184 383.14 184 376 184C377.127 176.109 377.127 176.109 379 172.625C379.351 171.957 379.701 171.29 380.062 170.602C381.571 168.025 381.571 168.025 383.949 167.886Z" fill="#ECECEC"/>
<path d="M210 123C216.6 123 223.2 123 230 123C229.67 126.3 229.34 129.6 229 133C222.4 133 215.8 133 209 133C209.33 129.7 209.66 126.4 210 123Z" fill="#070707"/>
<path d="M540.484 110.707C541.3 110.711 542.116 110.716 542.956 110.72C545.554 110.737 548.152 110.774 550.75 110.813C552.514 110.828 554.279 110.841 556.043 110.854C560.362 110.887 564.681 110.938 569 111C569 111.33 569 111.66 569 112C567.946 111.999 566.892 111.998 565.806 111.997C561.872 112 557.938 112.043 554.004 112.098C552.306 112.116 550.607 112.124 548.909 112.12C546.458 112.117 544.009 112.153 541.559 112.195C540.807 112.186 540.056 112.177 539.282 112.168C533.219 112.333 530.134 114.685 526 119C528.548 111.143 532.759 110.555 540.484 110.707Z" fill="#747474"/>
<path d="M141 74C141.33 74 141.66 74 142 74C141.858 76.3961 141.712 78.7918 141.562 81.1875C141.504 82.1978 141.504 82.1978 141.443 83.2285C141.211 86.897 140.828 90.4169 140 94C139.67 94 139.34 94 139 94C139 90.04 139 86.08 139 82C137.515 82.99 137.515 82.99 136 84C137.333 80.4099 138.894 77.2043 141 74Z" fill="#C8C8C8"/>
<path d="M178 140C178.33 140 178.66 140 179 140C179 142.31 179 144.62 179 147C178.01 147 177.02 147 176 147C175.01 147.495 175.01 147.495 174 148C175.125 145.028 176.223 142.666 178 140Z" fill="#282828"/>
<path d="M92 112C92.66 112.33 93.32 112.66 94 113C91.69 115.31 89.38 117.62 87 120C86.67 119.34 86.34 118.68 86 118C86.66 117.01 87.32 116.02 88 115C88.66 115 89.32 115 90 115C90 114.34 90 113.68 90 113C90.66 112.67 91.32 112.34 92 112Z" fill="#747474"/>
<path d="M429 112C429.66 112.33 430.32 112.66 431 113C428.69 115.31 426.38 117.62 424 120C424 117 424 117 426.5 114.312C427.325 113.549 428.15 112.786 429 112Z" fill="#777777"/>
</svg>
